<?xml version="1.0" encoding="utf-8"?>
<!-- Generator: Adobe Illustrator 23.0.0, SVG Export Plug-In . SVG Version: 6.00 Build 0)  -->
<svg version="1.1"
	 id="svg25640" inkscape:version="0.92.4 (5da689c313, 2019-01-14)" sodipodi:docname="logo.svg" xmlns:cc="http://creativecommons.org/ns#" xmlns:dc="http://purl.org/dc/elements/1.1/" xmlns:inkscape="http://www.inkscape.org/namespaces/inkscape" xmlns:rdf="http://www.w3.org/1999/02/22-rdf-syntax-ns#" xmlns:sodipodi="http://sodipodi.sourceforge.net/DTD/sodipodi-0.dtd" xmlns:svg="http://www.w3.org/2000/svg"
	 xmlns="http://www.w3.org/2000/svg" xmlns:xlink="http://www.w3.org/1999/xlink" x="0px" y="0px" viewBox="0 0 595.3 292.9"
	 style="enable-background:new 0 0 595.3 292.9;" xml:space="preserve">
<style type="text/css">
	.st0{display:none;}
	.st1{display:inline;fill:#BE5599;}
	.st2{fill:#EA5254;}
	.st3{font-family:'Gilroy-Semibold';}
	.st4{font-size:33.5419px;}
	.st5{fill:#525252;}
	.st6{font-family:'Gilroy-Light';}
	.st7{font-size:28.3509px;}
	.st8{font-family:'Gilroy-Regular';}
	.st9{font-family:'Gilroy-Medium';}
	.st10{font-family:'Gilroy-Bold';}
	.st11{font-family:'Gilroy-Extrabold';}
	.st12{font-family:'Gilroy-ExtraboldItalic';}
	.st13{fill:#BE5599;}
	.st14{font-size:27.7002px;}
	.st15{font-size:16.4882px;}
	.st16{fill:#4D9ECC;}
	.st17{font-size:25.0621px;}
	.st18{font-size:14.8394px;}
</style>
<sodipodi:namedview  bordercolor="#666666" borderopacity="1.0" id="base" inkscape:bbox-nodes="true" inkscape:bbox-paths="true" inkscape:current-layer="layer1" inkscape:cx="560.36925" inkscape:cy="404.33143" inkscape:document-units="mm" inkscape:guide-bbox="true" inkscape:pageopacity="0.0" inkscape:pageshadow="2" inkscape:snap-bbox="true" inkscape:window-height="1017" inkscape:window-maximized="1" inkscape:window-width="2560" inkscape:window-x="-8" inkscape:window-y="-8" inkscape:zoom="0.49497475" pagecolor="#ffffff" showgrid="false" showguides="true">
	<sodipodi:guide  id="guide26604" inkscape:locked="false" orientation="0,793.70079" position="0,0"></sodipodi:guide>
	<sodipodi:guide  id="guide26606" inkscape:locked="false" orientation="-390.54992,0" position="210,0"></sodipodi:guide>
	<sodipodi:guide  id="guide26608" inkscape:locked="false" orientation="0,-793.70079" position="210,103.333"></sodipodi:guide>
	<sodipodi:guide  id="guide26610" inkscape:locked="false" orientation="390.54992,0" position="0,103.333"></sodipodi:guide>
</sodipodi:namedview>
<g id="layer1" transform="translate(0,-193.667)" inkscape:groupmode="layer" inkscape:label="Camada 1" class="st0">
	<path id="path209" inkscape:connector-curvature="0" class="st1" d="M456.7,429.8c-3.9-0.5-7.3-2.4-9.6-5.5c-2-2.7-3-6.1-2.8-9.5
		c0.2-3.5,1.7-6.7,4.2-9.1c1.3-1.2,2.2-1.9,3.7-2.6c2.2-1.1,4.5-1.5,7.1-1.4c6.2,0.3,11.5,4.9,12.8,11c0.7,3.1,0.3,6.4-1.1,9.3
		C468.5,427.3,462.6,430.5,456.7,429.8L456.7,429.8z M123.6,429.6c-2-0.2-3.9-1.1-5.4-2.5c-1.5-1.4-2.2-2.7-2.9-5.4
		c-3.9-14.1-7-23.4-10.8-32.3c-8.4-19.7-20.5-37-42-60.2c-3.3-3.6-3.5-3.8-3.9-4.4c-3.7-5.6-0.6-13.1,6-14.5l0.7-0.1l0.3-1.4
		c1.6-7.5,5.4-15.4,10.3-21.2c0.8-0.9,3.1-3.3,4.6-4.7c8.4-7.7,17.7-12.3,27.5-13.6c3.5-0.4,7.8-0.4,11.5,0.2
		c9.1,1.5,17.9,6.2,25.2,13.4c8.2,8.2,14,19.2,16.1,30.8c0.1,0.5,0.2,0.9,0.2,0.9c0,0,0.7-0.2,1.4-0.6c3.4-1.4,11.6-4.6,11.8-4.6
		c0.2,0,0.2-0.3-0.1-1.1c-0.8-2.5-1.5-5.9-1.9-8.8c-0.4-3.3-0.5-7.9-0.2-11.2c1.2-11.4,6.4-21.3,15-28.2c5.3-4.2,12.1-7.5,18.4-8.7
		c2.7-0.5,3.7-0.6,6.8-0.6c2.9,0,3.2,0,5.5,0.4c6.7,1.2,12.8,4.7,17.1,10c3.3,4.1,5.4,8.9,6.3,14.3c0.3,1.7,0.3,4.8,0.2,6.6
		c-0.8,9.3-6,17.7-15.3,24.6c-5.3,4-12.6,7.9-21.8,11.6c-0.8,0.3-1.5,0.6-1.6,0.7c-0.1,0.1,2.3,2.1,3.5,3c2.8,2,5.9,3.3,9.2,3.8
		c1.5,0.2,4.4,0.2,5.9,0c4.4-0.6,9-2.2,13.1-4.5c9.2-5.2,17.6-15.7,21-25.8c0.4-1.3,0.8-2.5,1.1-4.1c0.1-0.5,0.3-1.3,0.4-1.6
		c0.1-0.4,0.4-1.3,0.6-2.1c2.1-8.5,5.7-15.7,10.9-21.8c1.1-1.3,3.8-4,5.1-5.1c3.9-3.3,7.9-5.7,12.3-7.4c3.8-1.5,7.2-2.4,11.5-2.9
		c1.5-0.2,7.1-0.2,8.6,0c4.1,0.4,7.6,1.3,11.3,2.8c4.1,1.6,8.2,4.1,11.7,7c2.1,1.7,5.1,4.9,6.4,6.6l0.4,0.6l1,0.1
		c2.3,0.2,4.2,1,5.8,2.5c1.4,1.3,2.4,3.2,2.8,5c0.2,1.1,0.2,1.9,0.1,3.3c-0.1,1.3-0.2,2.9-0.4,6.1c-0.5,10.5-1.3,17.8-3.3,30.2
		c-1.6,9.8-4.2,19-8.3,29.4c-0.2,0.4-0.3,0.8-0.3,0.8c0,0,0.5-0.2,1.2-0.5c6.9-2.9,12.2-7,16.3-12.3c2.7-3.6,5-8.1,6.6-13
		c0.9-2.7,1.2-3.8,1.3-4.6c0.1-0.4,0.2-1.4,0.3-2.2c0.4-2.6,1-5.7,1.8-8.5c5.4-18.4,19.3-31.3,36.8-34.2c3.8-0.6,8.1-0.7,12-0.2
		c8,1,15.7,4.4,22,9.8c3.1,2.6,6.1,6,8,8.9l0.3,0.5l0.8,0c3.6,0,6.8,2,8.4,5.1c0.7,1.4,1,2.7,1,4.3c0,1.2-0.1,2-0.8,5.4
		c-1.1,5.2-1.4,6.7-1.8,9c-1.6,8.9-2.6,16.4-2.9,23.6c-0.1,2.3-0.1,7.7,0,9.7c0.5,8,2,14,4.6,17.9c0.5,0.8,1.1,1.5,2.1,2.5
		c1.1,1.2,1.8,2.2,2.3,3.6c1.1,3.4,0.2,7.1-2.3,9.6c-2,1.9-4.3,2.9-7.1,2.7c-2.7-0.1-4.8-1.1-7-3.4c-2-2.2-3.7-4.4-5.2-7.1
		c-2.3-4.1-4.1-9.4-5.1-14.9c-0.1-0.6-0.2-1-0.2-1c0,0-0.4,0.3-1,0.6c-8.6,5.8-19.2,8.2-30.1,6.6c-10.9-1.5-21.3-7.1-28.1-15
		c-0.7-0.9-2.4-2.9-2.6-3.3c-0.1-0.1-0.1-0.1-0.3,0.2c-7.2,8.8-16.4,14.9-28.4,19c-3.8,1.3-8.7,2.5-12.9,3.3l-1.2,0.2l-1,1.7
		c-3.7,6.3-8.6,13.8-12,18.4c-3.5,4.8-6.4,8.2-9.2,10.7c-6.3,5.9-12.4,9.5-19.2,11.4c-5.4,1.5-10.9,1.7-16,0.5
		c-7.4-1.8-13.3-6.4-16.5-12.9c-1.7-3.5-2.5-6.8-2.6-10.7c-0.1-5,0.9-9.4,3.3-14c2.3-4.6,5.6-8.3,10.2-11.3
		c6.4-4.3,14.4-6.8,27.2-8.4c3.1-0.4,4.8-0.6,14.9-1.6c2.5-0.2,5.4-0.6,6.6-0.7c1.2-0.1,2.1-0.2,2.2-0.2c0.2,0,3.9-7.6,3.8-7.7
		c0,0-0.2,0-0.4,0.1c-1.1,0.4-3.7,1.1-5.3,1.4c-3,0.5-5,0.7-8.2,0.7c-3.4,0-5.8-0.2-9.1-0.9c-9-1.8-17.6-6.4-23.7-12.8
		c-2.1-2.2-4.5-5.3-5.6-7.3c-0.1-0.2-0.2-0.4-0.3-0.4c0,0-0.3,0.3-0.6,0.7c-2.5,2.9-6,6.3-9.3,8.9c-6.1,4.8-12.5,8.1-20,10.2
		c-4.6,1.3-9.6,1.9-14.1,1.7c-12.3-0.5-23.1-6.5-32.1-17.7c-0.4-0.5-0.8-1-0.9-1c-0.1,0-6,2.2-8.9,3.3c-5.3,2.1-9.6,3.9-13.6,5.8
		l-0.9,0.4l-0.3,1.2c-1.6,5.6-4.2,11-7.6,15.5c-3.6,4.8-5.1,6.5-7.3,8.2c-3.4,2.7-7.2,4.1-11,4.1c-1.6,0-2.9-0.2-4.4-0.7
		c-2.6-0.9-4.7-2.4-6.4-4.7c-0.7-0.9-1.6-2.6-1.9-3.7c-1.6-4.9-0.4-10.7,3.3-15.9c0.8-1.1,1.6-2,3.1-3.7c0.7-0.8,1.5-1.6,1.7-1.8
		c0.5-0.5,2.8-2.7,4-3.7c2.4-2.1,6.3-4.8,8.9-6.4c0.3-0.2,0.5-0.3,0.6-0.4c0.1-0.1,0-2.8-0.2-4.5c-0.6-5.1-2.4-10.1-5-14.7
		c-0.8-1.4-2.4-3.7-3.5-5.1c-1.2-1.5-3.2-3.6-4.5-4.7c-3.6-3.1-7.5-5.2-11.4-6.2c-2-0.5-3.5-0.6-5.8-0.6c-2.5,0.1-4.1,0.3-6.5,1.1
		c-4.6,1.5-9.2,4.5-13.7,8.9c-1.5,1.5-2.3,2.4-3.3,4c-2.8,4.3-4.6,8.9-5.1,13.3c-0.1,1.2-0.2,3.5,0,4.6c0.2,1.9,0.8,4,1.6,5.9
		c0.4,1,0.5,1.1,1.7,2.4c10.9,12.7,19.3,24.2,25.9,35.6c8.3,14.5,14.3,29.6,20.3,51c1.1,3.8,1.1,3.9,1.1,5.1
		c0.2,4.2-2.4,7.9-6.4,9.3C126.5,429.5,124.9,429.7,123.6,429.6L123.6,429.6z M272.5,392c4-0.5,8.4-2.7,12.8-6.4
		c2.5-2.1,5.4-5.6,8.6-9.9c1.6-2.2,3.6-5.2,3.6-5.2c0,0-3.1,0.3-6.3,0.6c-13.3,1.5-20.4,3.7-24.1,7.4c-0.7,0.7-1.4,1.7-1.9,2.7
		c-0.8,1.7-1.1,2.9-1.1,4.5c0,1.5,0.3,2.6,1,3.7C266.2,391.4,269.2,392.4,272.5,392L272.5,392z M404.4,344.6
		c11.4-1.3,19.1-9.9,21.6-24.2c0.6-3.3,0.7-4.8,0.7-7.5c0-7.7-1.6-12.5-5.7-17c-0.9-0.9-2.3-2.2-3.3-3c-3.1-2.4-6.8-4-10.7-4.6
		c-1.2-0.2-4.5-0.2-5.9-0.1c-2.9,0.3-5.4,1.1-8.2,2.5c-8.2,4.1-14,12.6-15.8,23.4c-0.7,4.1-0.9,9.3-0.5,12c0.5,3.3,1.8,6.2,4,9.1
		c0.8,1.1,3,3.2,4.3,4.2c4,3,8.7,4.9,13.8,5.4C400.1,344.7,403.1,344.7,404.4,344.6L404.4,344.6z M301.5,325.8
		c10.6-1,18-7.9,21.3-19.8c0.6-2.3,1-4.2,1.5-7.4c0.2-1.5,0.2-1.7,0.2-4.7c0-3.2,0-4.1-0.4-6c-0.7-4.6-2.5-8.2-5.6-11.4
		c-2.7-2.7-5.3-4.6-8.5-5.9c-6.6-2.6-14.3-2-20.7,1.7c-7.7,4.5-12.9,12.9-14.5,23.6c-0.6,3.7-0.7,8.5-0.4,10.9
		c0.4,2.7,1.4,5.4,3,7.7c0.9,1.4,1.6,2.2,2.8,3.5c3.6,3.5,8.4,6.1,13.6,7.1c1.1,0.2,2.6,0.4,3.6,0.5
		C298.4,325.9,300.6,325.9,301.5,325.8L301.5,325.8z M194.6,301.8c8.5-3.4,14.7-6.5,19-9.6c3.2-2.3,5.8-4.8,7.2-7.2
		c2.1-3.6,2-7.7-0.2-11.2c-1.5-2.2-3.8-3.7-6.6-4.2c-0.8-0.1-2.9-0.1-3.7,0c-3.3,0.5-6.5,1.8-9.7,3.9c-2.5,1.6-4.7,3.8-6.3,6.2
		c-0.7,1-1.7,3.1-2.1,4.2c-1.9,5.1-2,11.2-0.5,17.1c0.2,0.7,0.4,1.4,0.4,1.5c0,0.1,0.1,0.2,0.1,0.2
		C192,302.8,193.2,302.3,194.6,301.8L194.6,301.8z M471,394.6c-2-0.3-4.1-1.3-5.5-2.8c-1.4-1.4-2.2-3-2.6-5c-0.1-0.3-0.1-1-0.1-1.6
		c0-1.1,0-1.2,0.9-5.7c2.8-14.1,6.8-35.7,11.6-63.2c1.6-9.1,1.6-9.3,2.1-11.4c3.4-14.9,10.5-26,20.4-31.8c1.1-0.7,3.4-1.7,4.6-2.2
		c2-0.8,4.2-1.3,6.4-1.6c1.5-0.2,5.1-0.2,6.6,0c2.4,0.3,4.6,0.9,6.7,1.8c1.9,0.8,4.5,2.3,6,3.5c5.3,4.3,8.7,10.2,10,17.2
		c0.6,3.4,0.6,7.1,0.2,10.9c-0.5,3.9-1.8,8.4-3.6,12.6c-1.7,4-3.5,7.1-7.1,12.6c-15.6,23.5-32.3,45.6-46.3,61.5
		c-2.6,2.9-3.2,3.5-4.8,4.3C474.8,394.5,472.8,394.9,471,394.6L471,394.6z M492.4,345.3c3.8-5.1,8.1-11.1,11.8-16.5
		c3.4-5,8.6-12.6,9.9-14.7c3-4.8,4.8-9.2,5.4-13.5c0.2-1.5,0.2-4.1,0-5.3c-0.4-2.4-1.1-3.9-2.5-5.3c-0.7-0.7-1-0.9-1.6-1.2
		c-1.8-0.9-3.9-1-6-0.3c-1,0.3-2.4,1.1-3.4,1.8c-4.8,3.6-8.6,10.8-10.5,20.2c-0.1,0.6-0.8,4.6-1.6,8.8c-1.9,10.9-4.9,27.8-5.4,30.5
		c0,0.2-0.1,0.5-0.1,0.6C488.5,350.5,489.8,348.8,492.4,345.3L492.4,345.3z"/>
</g>
<text transform="matrix(1 0 0 1 16.663 90.0736)" class="st2 st3 st4">Gilroy</text>
<text transform="matrix(1 0 0 1 16.663 138.39)" class="st5 st6 st7">Aa </text>
<text transform="matrix(1 0 0 1 60.0678 138.39)" class="st5 st8 st7">Bb</text>
<text transform="matrix(1 0 0 1 95.6762 138.39)" class="st5 st3 st7"> </text>
<text transform="matrix(1 0 0 1 102.7641 138.39)" class="st5 st9 st7">Cc </text>
<text transform="matrix(1 0 0 1 146.1694 138.39)" class="st5 st3 st7">Dd</text>
<text transform="matrix(1 0 0 1 16.663 177.9213)" class="st5 st10 st7">Ee </text>
<text transform="matrix(1 0 0 1 54.9369 177.9213)" class="st5 st11 st7">Ff </text>
<text transform="matrix(1 0 0 1 86.122 177.9213)" class="st5 st11 st7">Gg </text>
<text transform="matrix(1 0 0 1 133.0707 177.9213)" class="st5 st12 st7">Hh</text>
<text transform="matrix(1 0 0 1 16.663 214.2592)" class="st5 st8 st7">123456789</text>
<text transform="matrix(1 0 0 1 236.3623 95.6791)" class="st13 st3 st14">. títulos</text>
<text transform="matrix(1 0 0 1 236.3623 135.5805)" class="st5 st10 st15">&gt; sub-títulos</text>
<text transform="matrix(1 0 0 1 236.3623 181.7484)" class="st16 st11 st17">Destaques</text>
<text transform="matrix(1 0 0 1 236.6914 219.0111)" class="st5 st8 st18">Textos corridos</text>
<text transform="matrix(1 0 0 1 359.0342 90.0736)" class="st5 st8 st18">bold tamanho 26</text>
<text transform="matrix(1 0 0 1 359.0342 134.2621)" class="st5 st8 st18">bold tamanho 16</text>
<text transform="matrix(1 0 0 1 386.4053 178.4506)" class="st5 st8 st18">ultra-bold tamanho 28</text>
<text transform="matrix(1 0 0 1 359.0342 219.0111)" class="st5 st8 st18">normal tamanho 14</text>
</svg>
